<svg width="195" height="15" viewBox="0 0 195 15" fill="none" xmlns="http://www.w3.org/2000/svg">
<path d="M15.783 13.676C15.855 13.676 15.891 13.73 15.891 13.838C15.891 13.946 15.855 14 15.783 14C15.459 14 14.937 13.982 14.217 13.946C13.497 13.91 12.975 13.892 12.651 13.892C12.363 13.892 11.985 13.91 11.517 13.946C11.049 13.982 10.689 14 10.437 14C10.365 14 10.329 13.946 10.329 13.838C10.329 13.73 10.365 13.676 10.437 13.676C10.905 13.676 11.247 13.622 11.463 13.514C11.697 13.388 11.814 13.172 11.814 12.866C11.814 12.596 11.706 12.218 11.49 11.732L9.654 7.79H5.874L4.713 10.679C4.425 11.363 4.281 11.93 4.281 12.38C4.281 12.848 4.443 13.181 4.767 13.379C5.091 13.577 5.586 13.676 6.252 13.676C6.342 13.676 6.387 13.73 6.387 13.838C6.387 13.946 6.342 14 6.252 14C5.982 14 5.613 13.982 5.145 13.946C4.641 13.91 4.173 13.892 3.741 13.892C3.291 13.892 2.76 13.91 2.148 13.946C1.608 13.982 1.176 14 0.851996 14C0.761996 14 0.716996 13.946 0.716996 13.838C0.716996 13.73 0.761996 13.676 0.851996 13.676C1.41 13.676 1.851 13.604 2.175 13.46C2.499 13.298 2.796 12.992 3.066 12.542C3.354 12.092 3.696 11.39 4.092 10.436L7.98 0.959C8.016 0.887 8.07 0.851 8.142 0.851C8.214 0.851 8.259 0.887 8.277 0.959L12.624 10.301C13.092 11.309 13.461 12.038 13.731 12.488C14.019 12.938 14.307 13.253 14.595 13.433C14.901 13.595 15.297 13.676 15.783 13.676ZM6.063 7.304H9.438L7.629 3.416L6.063 7.304ZM26.7712 11.705C26.7712 12.281 26.8342 12.704 26.9602 12.974C27.0862 13.226 27.3292 13.406 27.6892 13.514C28.0672 13.622 28.6522 13.676 29.4442 13.676C29.4982 13.676 29.5252 13.73 29.5252 13.838C29.5252 13.946 29.4982 14 29.4442 14C28.7962 14 28.3012 13.991 27.9592 13.973L25.9612 13.946L24.3682 13.973C24.0622 13.991 23.6482 14 23.1262 14C23.0902 14 23.0722 13.946 23.0722 13.838C23.0722 13.73 23.0902 13.676 23.1262 13.676C23.7202 13.676 24.1522 13.631 24.4222 13.541C24.6922 13.451 24.8722 13.28 24.9622 13.028C25.0702 12.758 25.1242 12.353 25.1242 11.813V3.551C25.1242 3.011 25.0702 2.615 24.9622 2.363C24.8722 2.111 24.6832 1.94 24.3952 1.85C24.1252 1.742 23.7022 1.688 23.1262 1.688C23.0902 1.688 23.0722 1.634 23.0722 1.526C23.0722 1.418 23.0902 1.364 23.1262 1.364L24.3412 1.391C25.0252 1.427 25.5562 1.445 25.9342 1.445C26.2402 1.445 26.5282 1.436 26.7982 1.418C27.0862 1.4 27.3292 1.382 27.5272 1.364C28.0852 1.31 28.6072 1.283 29.0932 1.283C32.0632 1.283 33.5482 2.381 33.5482 4.577C33.5482 5.441 33.3232 6.17 32.8732 6.764C32.4412 7.34 31.8832 7.772 31.1992 8.06C30.5332 8.348 29.8402 8.492 29.1202 8.492C28.6342 8.492 28.2382 8.456 27.9322 8.384C27.8962 8.384 27.8782 8.339 27.8782 8.249C27.8782 8.105 27.9232 8.033 28.0132 8.033C28.2832 8.087 28.5622 8.114 28.8502 8.114C29.6422 8.114 30.3082 7.862 30.8482 7.358C31.4062 6.836 31.6852 6.089 31.6852 5.117C31.6852 3.983 31.3882 3.128 30.7942 2.552C30.2182 1.958 29.4352 1.661 28.4452 1.661C27.9952 1.661 27.6532 1.697 27.4192 1.769C27.2032 1.841 27.0412 2.012 26.9332 2.282C26.8252 2.552 26.7712 2.993 26.7712 3.605V11.705ZM48.406 14.324C47.146 14.324 46.021 14.027 45.031 13.433C44.059 12.839 43.303 12.038 42.763 11.03C42.223 10.022 41.953 8.933 41.953 7.763C41.953 6.359 42.313 5.153 43.033 4.145C43.771 3.119 44.698 2.345 45.814 1.823C46.948 1.301 48.1 1.04 49.27 1.04C50.53 1.04 51.637 1.355 52.591 1.985C53.563 2.597 54.301 3.398 54.805 4.388C55.327 5.378 55.588 6.413 55.588 7.493C55.588 8.699 55.264 9.833 54.616 10.895C53.968 11.939 53.095 12.776 51.997 13.406C50.899 14.018 49.702 14.324 48.406 14.324ZM49.108 13.757C50.512 13.757 51.628 13.262 52.456 12.272C53.302 11.282 53.725 9.914 53.725 8.168C53.725 6.962 53.509 5.864 53.077 4.874C52.663 3.884 52.051 3.092 51.241 2.498C50.431 1.904 49.468 1.607 48.352 1.607C46.912 1.607 45.796 2.093 45.004 3.065C44.212 4.019 43.816 5.36 43.816 7.088C43.816 8.33 44.023 9.455 44.437 10.463C44.869 11.471 45.481 12.272 46.273 12.866C47.083 13.46 48.028 13.757 49.108 13.757ZM67.4821 11.705C67.4821 12.227 67.5271 12.614 67.6171 12.866C67.7251 13.118 67.9141 13.298 68.1841 13.406C68.4721 13.514 68.8951 13.568 69.4531 13.568H71.2351C72.1891 13.568 72.9451 13.271 73.5031 12.677C74.0791 12.083 74.4661 11.264 74.6641 10.22C74.6641 10.184 74.7001 10.166 74.7721 10.166C74.8261 10.166 74.8711 10.175 74.9071 10.193C74.9611 10.211 74.9881 10.238 74.9881 10.274C74.8621 11.102 74.7991 12.209 74.7991 13.595C74.7991 13.739 74.7631 13.847 74.6911 13.919C74.6371 13.973 74.5381 14 74.3941 14H63.8371C63.8011 14 63.7831 13.946 63.7831 13.838C63.7831 13.73 63.8011 13.676 63.8371 13.676C64.4311 13.676 64.8631 13.631 65.1331 13.541C65.4031 13.451 65.5831 13.28 65.6731 13.028C65.7631 12.758 65.8081 12.353 65.8081 11.813V3.551C65.8081 3.011 65.7541 2.615 65.6461 2.363C65.5561 2.111 65.3761 1.94 65.1061 1.85C64.8361 1.742 64.4131 1.688 63.8371 1.688C63.8011 1.688 63.7831 1.634 63.7831 1.526C63.7831 1.418 63.8011 1.364 63.8371 1.364L65.0521 1.391C65.7361 1.427 66.2671 1.445 66.6451 1.445C67.0951 1.445 67.6621 1.427 68.3461 1.391L69.4801 1.364C69.5341 1.364 69.5611 1.418 69.5611 1.526C69.5611 1.634 69.5341 1.688 69.4801 1.688C68.8861 1.688 68.4541 1.742 68.1841 1.85C67.9141 1.94 67.7251 2.12 67.6171 2.39C67.5271 2.642 67.4821 3.038 67.4821 3.578V11.705ZM86.3083 11.705C86.3083 12.227 86.3533 12.614 86.4433 12.866C86.5513 13.118 86.7403 13.298 87.0103 13.406C87.2983 13.514 87.7213 13.568 88.2793 13.568H90.0613C91.0153 13.568 91.7713 13.271 92.3293 12.677C92.9053 12.083 93.2923 11.264 93.4903 10.22C93.4903 10.184 93.5263 10.166 93.5983 10.166C93.6523 10.166 93.6973 10.175 93.7333 10.193C93.7873 10.211 93.8143 10.238 93.8143 10.274C93.6883 11.102 93.6253 12.209 93.6253 13.595C93.6253 13.739 93.5893 13.847 93.5173 13.919C93.4633 13.973 93.3643 14 93.2203 14H82.6633C82.6273 14 82.6093 13.946 82.6093 13.838C82.6093 13.73 82.6273 13.676 82.6633 13.676C83.2573 13.676 83.6893 13.631 83.9593 13.541C84.2293 13.451 84.4093 13.28 84.4993 13.028C84.5893 12.758 84.6343 12.353 84.6343 11.813V3.551C84.6343 3.011 84.5803 2.615 84.4723 2.363C84.3823 2.111 84.2023 1.94 83.9323 1.85C83.6623 1.742 83.2393 1.688 82.6633 1.688C82.6273 1.688 82.6093 1.634 82.6093 1.526C82.6093 1.418 82.6273 1.364 82.6633 1.364L83.8783 1.391C84.5623 1.427 85.0933 1.445 85.4713 1.445C85.9213 1.445 86.4883 1.427 87.1723 1.391L88.3063 1.364C88.3603 1.364 88.3873 1.418 88.3873 1.526C88.3873 1.634 88.3603 1.688 88.3063 1.688C87.7123 1.688 87.2803 1.742 87.0103 1.85C86.7403 1.94 86.5513 2.12 86.4433 2.39C86.3533 2.642 86.3083 3.038 86.3083 3.578V11.705ZM107.969 14.324C106.709 14.324 105.584 14.027 104.594 13.433C103.622 12.839 102.866 12.038 102.326 11.03C101.786 10.022 101.516 8.933 101.516 7.763C101.516 6.359 101.876 5.153 102.596 4.145C103.334 3.119 104.261 2.345 105.377 1.823C106.511 1.301 107.663 1.04 108.833 1.04C110.093 1.04 111.2 1.355 112.154 1.985C113.126 2.597 113.864 3.398 114.368 4.388C114.89 5.378 115.151 6.413 115.151 7.493C115.151 8.699 114.827 9.833 114.179 10.895C113.531 11.939 112.658 12.776 111.56 13.406C110.462 14.018 109.265 14.324 107.969 14.324ZM108.671 13.757C110.075 13.757 111.191 13.262 112.019 12.272C112.865 11.282 113.288 9.914 113.288 8.168C113.288 6.962 113.072 5.864 112.64 4.874C112.226 3.884 111.614 3.092 110.804 2.498C109.994 1.904 109.031 1.607 107.915 1.607C106.475 1.607 105.359 2.093 104.567 3.065C103.775 4.019 103.379 5.36 103.379 7.088C103.379 8.33 103.586 9.455 104 10.463C104.432 11.471 105.044 12.272 105.836 12.866C106.646 13.46 107.591 13.757 108.671 13.757ZM137.036 1.364C137.09 1.364 137.117 1.418 137.117 1.526C137.117 1.634 137.09 1.688 137.036 1.688C136.37 1.688 135.893 1.886 135.605 2.282C135.317 2.678 135.173 3.353 135.173 4.307V14.297C135.173 14.333 135.128 14.36 135.038 14.378C134.948 14.396 134.885 14.387 134.849 14.351L125.993 3.578C125.903 3.488 125.786 3.353 125.642 3.173V11.057C125.642 12.011 125.777 12.686 126.047 13.082C126.317 13.478 126.785 13.676 127.451 13.676C127.487 13.676 127.505 13.73 127.505 13.838C127.505 13.946 127.487 14 127.451 14C127.055 14 126.749 13.991 126.533 13.973L125.399 13.946L124.238 13.973C124.004 13.991 123.68 14 123.266 14C123.23 14 123.212 13.946 123.212 13.838C123.212 13.73 123.23 13.676 123.266 13.676C123.932 13.676 124.4 13.478 124.67 13.082C124.958 12.686 125.102 12.011 125.102 11.057V2.633C124.742 2.291 124.418 2.048 124.13 1.904C123.842 1.76 123.554 1.688 123.266 1.688C123.23 1.688 123.212 1.634 123.212 1.526C123.212 1.418 123.23 1.364 123.266 1.364L124.778 1.391L126.209 1.364C126.335 1.364 126.434 1.4 126.506 1.472C126.596 1.544 126.722 1.697 126.884 1.931C127.028 2.165 127.226 2.444 127.478 2.768L134.633 11.597V4.307C134.633 3.353 134.498 2.678 134.228 2.282C133.976 1.886 133.517 1.688 132.851 1.688C132.797 1.688 132.77 1.634 132.77 1.526C132.77 1.418 132.797 1.364 132.851 1.364L133.769 1.391C134.237 1.427 134.615 1.445 134.903 1.445C135.191 1.445 135.587 1.427 136.091 1.391L137.036 1.364ZM148.988 11.813C148.988 12.371 149.033 12.776 149.123 13.028C149.231 13.28 149.42 13.451 149.69 13.541C149.96 13.631 150.401 13.676 151.013 13.676C151.049 13.676 151.067 13.73 151.067 13.838C151.067 13.946 151.049 14 151.013 14C150.509 14 150.113 13.991 149.825 13.973L148.124 13.946L146.531 13.973C146.225 13.991 145.811 14 145.289 14C145.253 14 145.235 13.946 145.235 13.838C145.235 13.73 145.253 13.676 145.289 13.676C145.901 13.676 146.342 13.631 146.612 13.541C146.882 13.451 147.062 13.28 147.152 13.028C147.26 12.776 147.314 12.371 147.314 11.813V3.551C147.314 3.011 147.26 2.615 147.152 2.363C147.062 2.111 146.873 1.94 146.585 1.85C146.315 1.742 145.883 1.688 145.289 1.688C145.253 1.688 145.235 1.634 145.235 1.526C145.235 1.418 145.253 1.364 145.289 1.364L146.531 1.391C147.179 1.427 147.71 1.445 148.124 1.445C148.592 1.445 149.168 1.427 149.852 1.391L151.013 1.364C151.049 1.364 151.067 1.418 151.067 1.526C151.067 1.634 151.049 1.688 151.013 1.688C150.437 1.688 150.005 1.742 149.717 1.85C149.429 1.958 149.231 2.147 149.123 2.417C149.033 2.669 148.988 3.065 148.988 3.605V11.813ZM173.432 13.676C173.504 13.676 173.54 13.73 173.54 13.838C173.54 13.946 173.504 14 173.432 14C173.108 14 172.586 13.982 171.866 13.946C171.146 13.91 170.624 13.892 170.3 13.892C170.012 13.892 169.634 13.91 169.166 13.946C168.698 13.982 168.338 14 168.086 14C168.014 14 167.978 13.946 167.978 13.838C167.978 13.73 168.014 13.676 168.086 13.676C168.554 13.676 168.896 13.622 169.112 13.514C169.346 13.388 169.463 13.172 169.463 12.866C169.463 12.596 169.355 12.218 169.139 11.732L167.303 7.79H163.523L162.362 10.679C162.074 11.363 161.93 11.93 161.93 12.38C161.93 12.848 162.092 13.181 162.416 13.379C162.74 13.577 163.235 13.676 163.901 13.676C163.991 13.676 164.036 13.73 164.036 13.838C164.036 13.946 163.991 14 163.901 14C163.631 14 163.262 13.982 162.794 13.946C162.29 13.91 161.822 13.892 161.39 13.892C160.94 13.892 160.409 13.91 159.797 13.946C159.257 13.982 158.825 14 158.501 14C158.411 14 158.366 13.946 158.366 13.838C158.366 13.73 158.411 13.676 158.501 13.676C159.059 13.676 159.5 13.604 159.824 13.46C160.148 13.298 160.445 12.992 160.715 12.542C161.003 12.092 161.345 11.39 161.741 10.436L165.629 0.959C165.665 0.887 165.719 0.851 165.791 0.851C165.863 0.851 165.908 0.887 165.926 0.959L170.273 10.301C170.741 11.309 171.11 12.038 171.38 12.488C171.668 12.938 171.956 13.253 172.244 13.433C172.55 13.595 172.946 13.676 173.432 13.676ZM163.712 7.304H167.087L165.278 3.416L163.712 7.304ZM194.411 1.364C194.465 1.364 194.492 1.418 194.492 1.526C194.492 1.634 194.465 1.688 194.411 1.688C193.745 1.688 193.268 1.886 192.98 2.282C192.692 2.678 192.548 3.353 192.548 4.307V14.297C192.548 14.333 192.503 14.36 192.413 14.378C192.323 14.396 192.26 14.387 192.224 14.351L183.368 3.578C183.278 3.488 183.161 3.353 183.017 3.173V11.057C183.017 12.011 183.152 12.686 183.422 13.082C183.692 13.478 184.16 13.676 184.826 13.676C184.862 13.676 184.88 13.73 184.88 13.838C184.88 13.946 184.862 14 184.826 14C184.43 14 184.124 13.991 183.908 13.973L182.774 13.946L181.613 13.973C181.379 13.991 181.055 14 180.641 14C180.605 14 180.587 13.946 180.587 13.838C180.587 13.73 180.605 13.676 180.641 13.676C181.307 13.676 181.775 13.478 182.045 13.082C182.333 12.686 182.477 12.011 182.477 11.057V2.633C182.117 2.291 181.793 2.048 181.505 1.904C181.217 1.76 180.929 1.688 180.641 1.688C180.605 1.688 180.587 1.634 180.587 1.526C180.587 1.418 180.605 1.364 180.641 1.364L182.153 1.391L183.584 1.364C183.71 1.364 183.809 1.4 183.881 1.472C183.971 1.544 184.097 1.697 184.259 1.931C184.403 2.165 184.601 2.444 184.853 2.768L192.008 11.597V4.307C192.008 3.353 191.873 2.678 191.603 2.282C191.351 1.886 190.892 1.688 190.226 1.688C190.172 1.688 190.145 1.634 190.145 1.526C190.145 1.418 190.172 1.364 190.226 1.364L191.144 1.391C191.612 1.427 191.99 1.445 192.278 1.445C192.566 1.445 192.962 1.427 193.466 1.391L194.411 1.364Z" fill="black"/>
</svg>
